<svg version="1.1" width="440" height="80" viewBox="0.0 0.0 440.0 80.0" fill="none" stroke="none" stroke-linecap="square" stroke-miterlimit="10" xmlns:xlink="http://www.w3.org/1999/xlink" xmlns="http://www.w3.org/2000/svg"><clipPath id="p.0"><path d="m0 0l440.0 0l0 80.0l-440.0 0l0 -80.0z" clip-rule="nonzero"/></clipPath><g clip-path="url(#p.0)"><path fill="#000000" fill-opacity="0.0" d="m0 0l440.0 0l0 80.0l-440.0 0z" fill-rule="evenodd"/><path fill="#f8f9fa" d="m0 0l440.0 0l0 80.031494l-440.0 0z" fill-rule="evenodd"/><path fill="#ffffff" d="m0 0l83.37008 0l0 80.0l-83.37008 0z" fill-rule="evenodd"/><path stroke="#ffffff" stroke-width="1.0" stroke-linejoin="round" stroke-linecap="butt" d="m0 0l83.37008 0l0 80.0l-83.37008 0z" fill-rule="evenodd"/><path fill="#f9ab00" d="m53.906994 16.704739l0 0c0 -5.027096 4.075268 -9.102362 9.102364 -9.102362l0 0l0 0c2.4140968 0 4.7293205 0.9589963 6.436344 2.66602c1.7070236 1.7070246 2.6660156 4.0222454 2.6660156 6.4363422l0 46.582676c0 5.0270996 -4.075264 9.102364 -9.10236 9.102364l0 0l0 0c-5.027096 0 -9.102364 -4.075264 -9.102364 -9.102364z" fill-rule="evenodd"/><path fill="#e37400" d="m31.386415 32.239437l0 0c0 -5.027094 4.075266 -9.10236 9.102362 -9.10236l0 0l0 0c2.4140968 0 4.7293167 0.9589958 6.436344 2.6660194c1.7070236 1.7070236 2.6660194 4.0222454 2.6660194 6.4363403l0 31.055119c0 5.0270996 -4.075268 9.102364 -9.102364 9.102364l0 0l0 0c-5.027096 0 -9.102362 -4.075264 -9.102362 -9.102364z" fill-rule="evenodd"/><path fill="#e37400" d="m10.196851 57.971684l0 0c0 -5.027096 4.075266 -9.102364 9.102363 -9.102364l0 0l0 0c2.414095 0 4.7293167 0.9589958 6.4363403 2.6660194c1.7070255 1.7070236 2.6660213 4.0222473 2.6660213 6.436344l0 5.291336c0 5.027096 -4.075266 9.102367 -9.102362 9.102367l0 0l0 0c-5.0270967 0 -9.102363 -4.0752716 -9.102363 -9.102367z" fill-rule="evenodd"/><path fill="#000000" fill-opacity="0.0" d="m83.35696 -0.35170603l0 80.88189" fill-rule="evenodd"/><path stroke="#727273" stroke-width="1.0" stroke-linejoin="round" stroke-linecap="butt" d="m83.35696 -0.35170603l0 80.88189" fill-rule="evenodd"/><g filter="url(#shadowFilter-p.1)"><use xlink:href="#p.1" transform=""/></g><defs><filter id="shadowFilter-p.1" filterUnits="userSpaceOnUse"><feGaussianBlur in="SourceAlpha" stdDeviation="2.5" result="blur"/><feComponentTransfer in="blur" color-interpolation-filters="sRGB"><feFuncR type="linear" slope="0" intercept="0.0"/><feFuncG type="linear" slope="0" intercept="0.0"/><feFuncB type="linear" slope="0" intercept="0.0"/><feFuncA type="linear" slope="0.39" intercept="0"/></feComponentTransfer></filter></defs><g id="p.1"><path fill="#4285f4" d="m265.08136 16.771887l0 0c0 -6.439102 5.21994 -11.659026 11.659027 -11.659026l143.86307 0c3.092163 0 6.057678 1.2283583 8.244171 3.4148502c2.186493 2.186491 3.414856 5.15201 3.414856 8.244176l0 46.634705c0 6.439106 -5.21994 11.659031 -11.659027 11.659031l-143.86307 0c-6.439087 0 -11.659027 -5.219925 -11.659027 -11.659031z" fill-rule="evenodd"/></g><path fill="#000000" fill-opacity="0.0" d="m265.07874 -0.46194226l167.18112 0l0 39.68504l-167.18112 0z" fill-rule="evenodd"/><path fill="#ffffff" d="m310.3932 25.178057l0 -12.40625l5.5 0q1.65625 0 2.515625 0.34375q0.875 0.328125 1.390625 1.171875q0.515625 0.84375 0.515625 1.875q0 1.3125 -0.859375 2.21875q-0.859375 0.90625 -2.640625 1.15625q0.65625 0.3125 1.0 0.609375q0.71875 0.671875 1.359375 1.65625l2.15625 3.375l-2.0625 0l-1.640625 -2.578125q-0.71875 -1.125 -1.1875 -1.703125q-0.46875 -0.59375 -0.84375 -0.828125q-0.359375 -0.25 -0.734375 -0.34375q-0.28125 -0.0625 -0.921875 -0.0625l-1.90625 0l0 5.515625l-1.640625 0zm1.640625 -6.921875l3.53125 0q1.125 0 1.75 -0.234375q0.640625 -0.234375 0.96875 -0.75q0.34375 -0.515625 0.34375 -1.109375q0 -0.890625 -0.640625 -1.453125q-0.640625 -0.5625 -2.03125 -0.5625l-3.921875 0l0 4.109375zm16.8107 4.03125l1.5625 0.1875q-0.359375 1.390625 -1.375 2.15625q-1.0 0.75 -2.5625 0.75q-1.984375 0 -3.140625 -1.203125q-1.140625 -1.21875 -1.140625 -3.421875q0 -2.265625 1.15625 -3.515625q1.171875 -1.25 3.03125 -1.25q1.8125 0 2.953125 1.234375q1.140625 1.21875 1.140625 3.4375q0 0.140625 -0.015625 0.40625l-6.703125 0q0.09375 1.484375 0.84375 2.28125q0.75 0.78125 1.875 0.78125q0.84375 0 1.4375 -0.4375q0.59375 -0.4375 0.9375 -1.40625zm-5.0 -2.46875l5.015625 0q-0.109375 -1.125 -0.578125 -1.703125q-0.734375 -0.875 -1.890625 -0.875q-1.046875 0 -1.765625 0.703125q-0.703125 0.703125 -0.78125 1.875zm14.34021 4.25q-0.84375 0.71875 -1.625 1.015625q-0.78125 0.296875 -1.671875 0.296875q-1.484375 0 -2.28125 -0.71875q-0.796875 -0.734375 -0.796875 -1.859375q0 -0.65625 0.296875 -1.203125q0.3125 -0.546875 0.796875 -0.875q0.484375 -0.328125 1.09375 -0.5q0.4375 -0.109375 1.34375 -0.21875q1.84375 -0.21875 2.71875 -0.53125q0.015625 -0.3125 0.015625 -0.390625q0 -0.9375 -0.4375 -1.3125q-0.578125 -0.515625 -1.734375 -0.515625q-1.078125 0 -1.59375 0.375q-0.5 0.375 -0.75 1.328125l-1.484375 -0.203125q0.203125 -0.953125 0.65625 -1.53125q0.46875 -0.59375 1.34375 -0.90625q0.890625 -0.328125 2.046875 -0.328125q1.15625 0 1.875 0.28125q0.71875 0.265625 1.046875 0.671875q0.34375 0.40625 0.484375 1.03125q0.078125 0.390625 0.078125 1.40625l0 2.03125q0 2.125 0.09375 2.6875q0.09375 0.5625 0.390625 1.078125l-1.59375 0q-0.234375 -0.46875 -0.3125 -1.109375zm-0.125 -3.40625q-0.828125 0.34375 -2.484375 0.578125q-0.9375 0.140625 -1.328125 0.3125q-0.390625 0.171875 -0.609375 0.5q-0.203125 0.3125 -0.203125 0.71875q0 0.609375 0.453125 1.015625q0.46875 0.40625 1.359375 0.40625q0.875 0 1.5625 -0.390625q0.6875 -0.390625 1.015625 -1.046875q0.234375 -0.515625 0.234375 -1.53125l0 -0.5625zm3.87146 4.515625l0 -12.40625l1.515625 0l0 12.40625l-1.515625 0zm3.287262 -3.71875l0 -1.53125l4.6875 0l0 1.53125l-4.6875 0zm9.723541 3.71875l0 -10.9375l-4.09375 0l0 -1.46875l9.828125 0l0 1.46875l-4.09375 0l0 10.9375l-1.640625 0zm6.5977173 -10.65625l0 -1.75l1.515625 0l0 1.75l-1.515625 0zm0 10.65625l0 -8.984375l1.515625 0l0 8.984375l-1.515625 0zm3.834137 0l0 -8.984375l1.359375 0l0 1.265625q0.421875 -0.671875 1.125 -1.0625q0.703125 -0.40625 1.609375 -0.40625q1.0 0 1.625 0.421875q0.640625 0.40625 0.90625 1.15625q1.0625 -1.578125 2.78125 -1.578125q1.328125 0 2.046875 0.75q0.71875 0.734375 0.71875 2.265625l0 6.171875l-1.515625 0l0 -5.65625q0 -0.921875 -0.15625 -1.3125q-0.140625 -0.40625 -0.53125 -0.65625q-0.375 -0.25 -0.90625 -0.25q-0.953125 0 -1.578125 0.640625q-0.625 0.625 -0.625 2.015625l0 5.21875l-1.515625 0l0 -5.84375q0 -1.015625 -0.375 -1.515625q-0.375 -0.515625 -1.21875 -0.515625q-0.640625 0 -1.1875 0.34375q-0.546875 0.34375 -0.796875 1.0q-0.234375 0.640625 -0.234375 1.875l0 4.65625l-1.53125 0zm20.590729 -2.890625l1.5625 0.1875q-0.359375 1.390625 -1.375 2.15625q-1.0 0.75 -2.5625 0.75q-1.984375 0 -3.140625 -1.203125q-1.140625 -1.21875 -1.140625 -3.421875q0 -2.265625 1.15625 -3.515625q1.171875 -1.25 3.03125 -1.25q1.8125 0 2.953125 1.234375q1.140625 1.21875 1.140625 3.4375q0 0.140625 -0.015625 0.40625l-6.703125 0q0.09375 1.484375 0.84375 2.28125q0.75 0.78125 1.875 0.78125q0.84375 0 1.4375 -0.4375q0.59375 -0.4375 0.9375 -1.40625zm-5.0 -2.46875l5.015625 0q-0.109375 -1.125 -0.578125 -1.703125q-0.734375 -0.875 -1.890625 -0.875q-1.046875 0 -1.765625 0.703125q-0.703125 0.703125 -0.78125 1.875z" fill-rule="nonzero"/><g filter="url(#shadowFilter-p.2)"><use xlink:href="#p.2" transform=""/></g><defs><filter id="shadowFilter-p.2" filterUnits="userSpaceOnUse"><feGaussianBlur in="SourceAlpha" stdDeviation="2.5" result="blur"/><feComponentTransfer in="blur" color-interpolation-filters="sRGB"><feFuncR type="linear" slope="0" intercept="0.0"/><feFuncG type="linear" slope="0" intercept="0.0"/><feFuncB type="linear" slope="0" intercept="0.0"/><feFuncA type="linear" slope="0.39" intercept="0"/></feComponentTransfer></filter></defs><g id="p.2"><path fill="#ffffff" d="m100.19292 16.680023l0 0c0 -6.439102 5.2199173 -11.659025 11.659019 -11.659025l124.74494 0c3.092163 0 6.0576935 1.2283578 8.244171 3.4148498c2.186493 2.186491 3.414856 5.15201 3.414856 8.244176l0 46.634705c0 6.439102 -5.219925 11.659027 -11.659027 11.659027l-124.74494 0c-6.439102 0 -11.659019 -5.219925 -11.659019 -11.659027z" fill-rule="evenodd"/></g></g></svg>