<svg version="1.1" width="440" height="146" viewBox="0.0 0.0 440.0 146.0" fill="none" stroke="none" stroke-linecap="square" stroke-miterlimit="10" xmlns:xlink="http://www.w3.org/1999/xlink" xmlns="http://www.w3.org/2000/svg"><clipPath id="p.0"><path d="m0 0l440.0 0l0 146.0l-440.0 0l0 -146.0z" clip-rule="nonzero"/></clipPath><g clip-path="url(#p.0)"><path fill="#000000" fill-opacity="0.0" d="m0 0l440.0 0l0 146.0l-440.0 0z" fill-rule="evenodd"/><path fill="#f8f9fa" d="m0 0l440.0 0l0 146.04724l-440.0 0z" fill-rule="evenodd"/><path fill="#ffffff" d="m0 0l83.37008 0l0 146.01575l-83.37008 0z" fill-rule="evenodd"/><path stroke="#ffffff" stroke-width="1.0" stroke-linejoin="round" stroke-linecap="butt" d="m0 0l83.37008 0l0 146.01575l-83.37008 0z" fill-rule="evenodd"/><path fill="#f9ab00" d="m54.43822 51.819237l0 0c0 -5.027096 4.075268 -9.102364 9.102364 -9.102364l0 0l0 0c2.4140968 0 4.7293205 0.95899963 6.436344 2.6660233c1.7070236 1.7070236 2.6660156 4.0222435 2.6660156 6.4363403l0 42.33071c0 5.027092 -4.075264 9.102364 -9.10236 9.102364l0 0l0 0c-5.027096 0 -9.102364 -4.0752716 -9.102364 -9.102364z" fill-rule="evenodd"/><path fill="#e37400" d="m31.917105 66.33747l0 0c0 -5.027092 4.075266 -9.10236 9.102362 -9.10236l0 0l0 0c2.4140968 0 4.7293167 0.9589958 6.436344 2.6660194c1.7070236 1.7070236 2.6660194 4.0222473 2.6660194 6.4363403l0 27.842522c0 5.0270996 -4.075268 9.102364 -9.102364 9.102364l0 0l0 0c-5.027096 0 -9.102362 -4.075264 -9.102362 -9.102364z" fill-rule="evenodd"/><path fill="#e37400" d="m10.727035 90.38601l0 0c0 -5.0270996 4.075266 -9.102364 9.102363 -9.102364l0 0l0 0c2.414095 0 4.7293167 0.95899963 6.4363403 2.6660233c1.7070255 1.7070236 2.6660213 4.0222397 2.6660213 6.4363403l0 3.7480316c0 5.027092 -4.075266 9.102364 -9.102362 9.102364l0 0l0 0c-5.0270967 0 -9.102363 -4.0752716 -9.102363 -9.102364z" fill-rule="evenodd"/><path fill="#000000" fill-opacity="0.0" d="m83.35696 -0.6418635l0 147.62204" fill-rule="evenodd"/><path stroke="#727273" stroke-width="1.0" stroke-linejoin="round" stroke-linecap="butt" d="m83.35696 -0.6418635l0 147.62204" fill-rule="evenodd"/><g filter="url(#shadowFilter-p.1)"><use xlink:href="#p.1" transform=""/></g><defs><filter id="shadowFilter-p.1" filterUnits="userSpaceOnUse"><feGaussianBlur in="SourceAlpha" stdDeviation="2.5" result="blur"/><feComponentTransfer in="blur" color-interpolation-filters="sRGB"><feFuncR type="linear" slope="0" intercept="0.0"/><feFuncG type="linear" slope="0" intercept="0.0"/><feFuncB type="linear" slope="0" intercept="0.0"/><feFuncA type="linear" slope="0.39" intercept="0"/></feComponentTransfer></filter></defs><g id="p.1"><path fill="#4285f4" d="m265.08136 62.829697l0 0c0 -8.190212 6.639496 -14.829693 14.829712 -14.829693l137.5217 0c3.933075 0 7.705078 1.5624084 10.486176 4.3435173c2.7810974 2.781105 4.3435364 6.553097 4.3435364 10.486176l0 59.316994c0 8.190208 -6.639496 14.829689 -14.829712 14.829689l-137.5217 0c-8.190216 0 -14.829712 -6.6394806 -14.829712 -14.829689z" fill-rule="evenodd"/></g><path fill="#000000" fill-opacity="0.0" d="m94.07087 -5.8425198l338.20474 0l0 48.850395l-338.20474 0z" fill-rule="evenodd"/><path fill="#5f6368" d="m160.91125 31.31748l0 -21.0l9.296875 0q2.8125 0 4.265625 0.578125q1.46875 0.5625 2.34375 2.0q0.875 1.421875 0.875 3.15625q0 2.234375 -1.453125 3.765625q-1.4375 1.53125 -4.46875 1.953125q1.109375 0.53125 1.671875 1.046875q1.21875 1.109375 2.3125 2.78125l3.65625 5.71875l-3.5 0l-2.78125 -4.375q-1.21875 -1.890625 -2.0 -2.890625q-0.78125 -1.0 -1.40625 -1.390625q-0.625 -0.40625 -1.265625 -0.5625q-0.484375 -0.109375 -1.546875 -0.109375l-3.234375 0l0 9.328125l-2.765625 0zm2.765625 -11.734375l5.984375 0q1.890625 0 2.96875 -0.390625q1.078125 -0.390625 1.625 -1.25q0.5625 -0.875 0.5625 -1.890625q0 -1.484375 -1.078125 -2.4375q-1.078125 -0.96875 -3.40625 -0.96875l-6.65625 0l0 6.9375zm28.445465 6.84375l2.65625 0.328125q-0.625 2.328125 -2.328125 3.625q-1.703125 1.28125 -4.359375 1.28125q-3.328125 0 -5.28125 -2.046875q-1.953125 -2.0625 -1.953125 -5.765625q0 -3.84375 1.96875 -5.953125q1.984375 -2.125 5.125 -2.125q3.0625 0 4.984375 2.078125q1.9375 2.0625 1.9375 5.84375q0 0.21875 -0.015625 0.671875l-11.34375 0q0.140625 2.515625 1.421875 3.84375q1.28125 1.328125 3.171875 1.328125q1.421875 0 2.421875 -0.734375q1.0 -0.75 1.59375 -2.375zm-8.46875 -4.171875l8.5 0q-0.171875 -1.921875 -0.96875 -2.875q-1.234375 -1.5 -3.203125 -1.5q-1.765625 0 -2.984375 1.1875q-1.203125 1.1875 -1.34375 3.1875zm24.295288 7.1875q-1.4375 1.21875 -2.765625 1.71875q-1.3125 0.5 -2.828125 0.5q-2.515625 0 -3.859375 -1.21875q-1.34375 -1.234375 -1.34375 -3.140625q0 -1.109375 0.5 -2.03125q0.515625 -0.921875 1.328125 -1.484375q0.828125 -0.5625 1.859375 -0.84375q0.765625 -0.203125 2.296875 -0.390625q3.125 -0.375 4.59375 -0.890625q0.015625 -0.53125 0.015625 -0.671875q0 -1.578125 -0.734375 -2.21875q-0.984375 -0.875 -2.9375 -0.875q-1.8125 0 -2.6875 0.640625q-0.859375 0.640625 -1.265625 2.25l-2.53125 -0.34375q0.34375 -1.609375 1.125 -2.609375q0.796875 -1.0 2.28125 -1.53125q1.5 -0.53125 3.453125 -0.53125q1.953125 0 3.171875 0.453125q1.21875 0.453125 1.78125 1.15625q0.578125 0.6875 0.8125 1.75q0.125 0.65625 0.125 2.375l0 3.4375q0 3.59375 0.15625 4.546875q0.171875 0.953125 0.65625 1.828125l-2.6875 0q-0.40625 -0.796875 -0.515625 -1.875zm-0.21875 -5.75q-1.40625 0.5625 -4.203125 0.96875q-1.59375 0.21875 -2.25 0.515625q-0.65625 0.28125 -1.015625 0.84375q-0.359375 0.546875 -0.359375 1.21875q0 1.03125 0.78125 1.71875q0.78125 0.6875 2.28125 0.6875q1.484375 0 2.640625 -0.65625q1.171875 -0.65625 1.71875 -1.78125q0.40625 -0.875 0.40625 -2.578125l0 -0.9375zm6.545288 7.625l0 -21.0l2.578125 0l0 21.0l-2.578125 0zm5.5782776 -6.296875l0 -2.59375l7.90625 0l0 2.59375l-7.90625 0zm16.438354 6.296875l0 -18.515625l-6.921875 0l0 -2.484375l16.640625 0l0 2.484375l-6.953125 0l0 18.515625l-2.765625 0zm11.170013 -18.03125l0 -2.96875l2.578125 0l0 2.96875l-2.578125 0zm0 18.03125l0 -15.203125l2.578125 0l0 15.203125l-2.578125 0zm6.5001526 0l0 -15.203125l2.296875 0l0 2.125q0.71875 -1.109375 1.90625 -1.78125q1.1875 -0.6875 2.703125 -0.6875q1.703125 0 2.78125 0.703125q1.078125 0.6875 1.515625 1.953125q1.8125 -2.65625 4.703125 -2.65625q2.265625 0 3.484375 1.25q1.21875 1.25 1.21875 3.859375l0 10.4375l-2.5625 0l0 -9.578125q0 -1.546875 -0.265625 -2.21875q-0.25 -0.6875 -0.90625 -1.09375q-0.65625 -0.421875 -1.546875 -0.421875q-1.59375 0 -2.65625 1.0625q-1.0625 1.0625 -1.0625 3.421875l0 8.828125l-2.578125 0l0 -9.875q0 -1.71875 -0.640625 -2.578125q-0.625 -0.859375 -2.046875 -0.859375q-1.09375 0 -2.015625 0.578125q-0.921875 0.5625 -1.34375 1.671875q-0.40625 1.09375 -0.40625 3.171875l0 7.890625l-2.578125 0zm34.836792 -4.890625l2.65625 0.328125q-0.625 2.328125 -2.328125 3.625q-1.703125 1.28125 -4.359375 1.28125q-3.328125 0 -5.28125 -2.046875q-1.953125 -2.0625 -1.953125 -5.765625q0 -3.84375 1.96875 -5.953125q1.984375 -2.125 5.125 -2.125q3.0625 0 4.984375 2.078125q1.9375 2.0625 1.9375 5.84375q0 0.21875 -0.015625 0.671875l-11.34375 0q0.140625 2.515625 1.421875 3.84375q1.28125 1.328125 3.171875 1.328125q1.421875 0 2.421875 -0.734375q1.0 -0.75 1.59375 -2.375zm-8.46875 -4.171875l8.5 0q-0.171875 -1.921875 -0.96875 -2.875q-1.234375 -1.5 -3.203125 -1.5q-1.765625 0 -2.984375 1.1875q-1.203125 1.1875 -1.34375 3.1875zm21.896729 2.3125l2.625 -0.21875q0.1875 1.5625 0.859375 2.578125q0.6875 1.015625 2.109375 1.640625q1.4375 0.609375 3.234375 0.609375q1.59375 0 2.796875 -0.46875q1.21875 -0.46875 1.8125 -1.28125q0.59375 -0.828125 0.59375 -1.8125q0 -0.984375 -0.578125 -1.71875q-0.5625 -0.734375 -1.875 -1.234375q-0.84375 -0.34375 -3.734375 -1.03125q-2.890625 -0.6875 -4.0625 -1.3125q-1.5 -0.78125 -2.234375 -1.953125q-0.734375 -1.171875 -0.734375 -2.609375q0 -1.59375 0.890625 -2.96875q0.90625 -1.390625 2.640625 -2.109375q1.734375 -0.71875 3.859375 -0.71875q2.328125 0 4.109375 0.765625q1.78125 0.75 2.734375 2.21875q0.96875 1.453125 1.046875 3.296875l-2.671875 0.203125q-0.21875 -2.0 -1.453125 -3.015625q-1.234375 -1.015625 -3.65625 -1.015625q-2.515625 0 -3.671875 0.921875q-1.15625 0.921875 -1.15625 2.234375q0 1.125 0.8125 1.859375q0.8125 0.734375 4.1875 1.5q3.390625 0.765625 4.65625 1.328125q1.828125 0.859375 2.703125 2.15625q0.875 1.28125 0.875 2.984375q0 1.671875 -0.96875 3.15625q-0.953125 1.484375 -2.75 2.3125q-1.796875 0.8125 -4.046875 0.8125q-2.84375 0 -4.78125 -0.828125q-1.921875 -0.828125 -3.015625 -2.5q-1.09375 -1.671875 -1.15625 -3.78125zm25.811615 4.4375l0.375 2.28125q-1.09375 0.234375 -1.953125 0.234375q-1.40625 0 -2.1875 -0.4375q-0.765625 -0.453125 -1.078125 -1.171875q-0.3125 -0.734375 -0.3125 -3.046875l0 -8.75l-1.890625 0l0 -2.0l1.890625 0l0 -3.765625l2.5625 -1.546875l0 5.3125l2.59375 0l0 2.0l-2.59375 0l0 8.890625q0 1.109375 0.125 1.421875q0.140625 0.3125 0.453125 0.5q0.3125 0.1875 0.890625 0.1875q0.421875 0 1.125 -0.109375zm12.44519 0.4375q-1.4375 1.21875 -2.765625 1.71875q-1.3125 0.5 -2.828125 0.5q-2.515625 0 -3.859375 -1.21875q-1.34375 -1.234375 -1.34375 -3.140625q0 -1.109375 0.5 -2.03125q0.515625 -0.921875 1.328125 -1.484375q0.828125 -0.5625 1.859375 -0.84375q0.765625 -0.203125 2.296875 -0.390625q3.125 -0.375 4.59375 -0.890625q0.015625 -0.53125 0.015625 -0.671875q0 -1.578125 -0.734375 -2.21875q-0.984375 -0.875 -2.9375 -0.875q-1.8125 0 -2.6875 0.640625q-0.859375 0.640625 -1.265625 2.25l-2.53125 -0.34375q0.34375 -1.609375 1.125 -2.609375q0.796875 -1.0 2.28125 -1.53125q1.5 -0.53125 3.453125 -0.53125q1.953125 0 3.171875 0.453125q1.21875 0.453125 1.78125 1.15625q0.578125 0.6875 0.8125 1.75q0.125 0.65625 0.125 2.375l0 3.4375q0 3.59375 0.15625 4.546875q0.171875 0.953125 0.65625 1.828125l-2.6875 0q-0.40625 -0.796875 -0.515625 -1.875zm-0.21875 -5.75q-1.40625 0.5625 -4.203125 0.96875q-1.59375 0.21875 -2.25 0.515625q-0.65625 0.28125 -1.015625 0.84375q-0.359375 0.546875 -0.359375 1.21875q0 1.03125 0.78125 1.71875q0.78125 0.6875 2.28125 0.6875q1.484375 0 2.640625 -0.65625q1.171875 -0.65625 1.71875 -1.78125q0.40625 -0.875 0.40625 -2.578125l0 -0.9375zm12.232788 5.3125l0.375 2.28125q-1.09375 0.234375 -1.953125 0.234375q-1.40625 0 -2.1875 -0.4375q-0.765625 -0.453125 -1.078125 -1.171875q-0.3125 -0.734375 -0.3125 -3.046875l0 -8.75l-1.890625 0l0 -2.0l1.890625 0l0 -3.765625l2.5625 -1.546875l0 5.3125l2.59375 0l0 2.0l-2.59375 0l0 8.890625q0 1.109375 0.125 1.421875q0.140625 0.3125 0.453125 0.5q0.3125 0.1875 0.890625 0.1875q0.421875 0 1.125 -0.109375zm1.4920349 -2.234375l2.546875 -0.390625q0.21875 1.53125 1.1875 2.34375q0.984375 0.8125 2.75 0.8125q1.78125 0 2.640625 -0.71875q0.859375 -0.71875 0.859375 -1.703125q0 -0.859375 -0.765625 -1.375q-0.53125 -0.34375 -2.640625 -0.859375q-2.828125 -0.71875 -3.921875 -1.234375q-1.09375 -0.53125 -1.671875 -1.453125q-0.5625 -0.921875 -0.5625 -2.046875q0 -1.015625 0.46875 -1.875q0.46875 -0.875 1.265625 -1.453125q0.609375 -0.4375 1.640625 -0.734375q1.046875 -0.3125 2.234375 -0.3125q1.78125 0 3.125 0.515625q1.359375 0.515625 2.0 1.390625q0.65625 0.875 0.890625 2.359375l-2.515625 0.34375q-0.171875 -1.171875 -1.0 -1.828125q-0.8125 -0.671875 -2.3125 -0.671875q-1.78125 0 -2.546875 0.59375q-0.75 0.578125 -0.75 1.375q0 0.5 0.3125 0.90625q0.3125 0.40625 0.984375 0.6875q0.390625 0.140625 2.28125 0.65625q2.734375 0.734375 3.8125 1.203125q1.078125 0.453125 1.6875 1.34375q0.625 0.890625 0.625 2.203125q0 1.296875 -0.75 2.4375q-0.75 1.125 -2.171875 1.75q-1.421875 0.625 -3.203125 0.625q-2.96875 0 -4.53125 -1.234375q-1.546875 -1.234375 -1.96875 -3.65625z" fill-rule="nonzero"/><g filter="url(#shadowFilter-p.2)"><use xlink:href="#p.2" transform=""/></g><defs><filter id="shadowFilter-p.2" filterUnits="userSpaceOnUse"><feGaussianBlur in="SourceAlpha" stdDeviation="2.5" result="blur"/><feComponentTransfer in="blur" color-interpolation-filters="sRGB"><feFuncR type="linear" slope="0" intercept="0.0"/><feFuncG type="linear" slope="0" intercept="0.0"/><feFuncB type="linear" slope="0" intercept="0.0"/><feFuncA type="linear" slope="0.39" intercept="0"/></feComponentTransfer></filter></defs><g id="p.2"><path fill="#ffffff" d="m100.19423 62.66976l0 0c0 -8.190212 6.639473 -14.829693 14.829689 -14.829693l118.4036 0c3.9330902 0 7.705078 1.5624123 10.486176 4.3435173c2.7811127 2.7811089 4.343521 6.553097 4.343521 10.486176l0 59.316994c0 8.190216 -6.6394806 14.829697 -14.829697 14.829697l-118.4036 0c-8.190216 0 -14.829689 -6.6394806 -14.829689 -14.829697z" fill-rule="evenodd"/></g></g></svg>